<?xml version="1.0" encoding="UTF-8" standalone="no"?>
<!-- Created with Inkscape (http://www.inkscape.org/) -->

<svg
   width="104.0411mm"
   height="96.388573mm"
   viewBox="0 0 104.0411 96.388573"
   version="1.1"
   id="svg1"
   xmlns="http://www.w3.org/2000/svg"
   xmlns:svg="http://www.w3.org/2000/svg">
  <defs
     id="defs1" />
  <g
     id="layer1"
     transform="translate(-41.907972,-107.68529)">
    <path
       id="rect1"
       style="fill:#333333;stroke-width:3.66501;stroke-linecap:round;stroke-miterlimit:4.1;paint-order:stroke fill markers"
       d="m 56.200704,133.74119 c -1.053957,0 -1.902726,0.71023 -1.902726,1.59267 v 67.1468 c 0,0.88244 0.848769,1.59319 1.902726,1.59319 h 77.459876 c 1.05396,0 1.90272,-0.71075 1.90272,-1.59319 v -67.1468 c 0,-0.88244 -0.84876,-1.59267 -1.90272,-1.59267 z m 37.261808,10.38593 h 3.025139 c 1.157466,0 2.089278,0.70835 2.089278,1.58853 v 47.1656 c 0,0.88019 -0.931812,1.58853 -2.089278,1.58853 h -3.025139 c -1.157466,0 -2.089278,-0.70834 -2.089278,-1.58853 v -47.1656 c 0,-0.88018 0.931812,-1.58853 2.089278,-1.58853 z m 22.620838,0 h 3.11868 c 1.05395,0 1.90272,0.71578 1.90272,1.60507 v 46.9191 c 0,0.88929 -0.84877,1.60507 -1.90272,1.60507 h -3.11868 c -1.05395,0 -1.90272,-0.71578 -1.90272,-1.60507 v -46.9191 c 0,-0.88929 0.84877,-1.60507 1.90272,-1.60507 z m -43.848483,0.1819 h 2.208134 c 1.053958,0 1.90221,0.71075 1.90221,1.59319 v 47.10358 c 0,0.88244 -0.848252,1.59318 -1.90221,1.59318 h -2.208134 c -1.053957,0 -1.902209,-0.71074 -1.902209,-1.59318 v -47.10358 c 0,-0.88244 0.848252,-1.59319 1.902209,-1.59319 z" />
    <rect
       style="fill:#333333;stroke-width:3.66501;stroke-linecap:round;stroke-miterlimit:4.1;paint-order:stroke fill markers"
       id="rect2"
       width="104.04111"
       height="14.030062"
       x="41.907974"
       y="118.8"
       rx="1.9024506"
       ry="1.5928478" />
    <ellipse
       style="fill:#333333;stroke-width:3.66501;stroke-linecap:round;stroke-miterlimit:4.1;paint-order:stroke fill markers"
       id="path2"
       cx="94.657356"
       cy="118.43559"
       rx="19.769632"
       ry="10.750307" />
  </g>
</svg>
