<?xml version="1.0" encoding="UTF-8" standalone="no"?>
<!-- Created with Inkscape (http://www.inkscape.org/) -->

<svg
   width="61.524094mm"
   height="47.735558mm"
   viewBox="0 0 61.524094 47.735558"
   version="1.1"
   id="svg1"
   xmlns="http://www.w3.org/2000/svg"
   xmlns:svg="http://www.w3.org/2000/svg">
  <defs
     id="defs1" />
  <g
     id="layer1"
     transform="translate(-129.16048,-164.40104)">
    <path
       style="opacity:1;fill:#c13b00;fill-opacity:1;stroke:none;stroke-width:3.66501;stroke-linecap:round;stroke-linejoin:miter;stroke-miterlimit:4.1;stroke-dasharray:none;stroke-opacity:1;paint-order:stroke fill markers"
       d="m 159.89159,180.76382 c 0,0 -5.92668,-13.91482 -17.13584,-13.91482 -11.20916,0 -14.09349,6.59229 -13.5283,13.65714 0.77305,9.66307 31.63045,31.63045 31.63045,31.63045 0,0 25.36859,-24.50822 26.99217,-32.14581 1.39335,-6.55451 0.13507,-12.99476 -10.6938,-13.01293 -12.92082,-0.0217 -17.26468,13.78597 -17.26468,13.78597 z"
       id="path40" />
    <path
       style="opacity:1;fill:#1dbcc0;fill-opacity:1;stroke:none;stroke-width:3.66501;stroke-linecap:round;stroke-linejoin:miter;stroke-miterlimit:4.1;stroke-dasharray:none;stroke-opacity:1;paint-order:stroke fill markers"
       d="m 137.08675,210.26839 c 0,0 -2.44798,-14.30134 6.3132,-21.77411 8.76118,-7.47278 21.64528,-3.09219 31.95255,-8.37466 10.30728,-5.28248 12.36873,-15.7186 12.36873,-15.7186 l 2.96334,4.76712 c 0,0 -3.60754,10.56495 -11.72452,14.1725 -8.11698,3.60755 -19.71266,1.80377 -28.98921,9.14771 -9.27655,7.34393 -8.5035,17.90889 -8.5035,17.90889 z"
       id="path41" />
  </g>
</svg>
